<?xml version="1.0" encoding="UTF-8"?>
<svg id="Layer_2" data-name="Layer 2" xmlns="http://www.w3.org/2000/svg" xmlns:xlink="http://www.w3.org/1999/xlink" viewBox="0 0 1079.5 121.77">
  <defs>
    <style>
      .cls-1 {
        fill: url(#linear-gradient);
      }

      .cls-2 {
        fill: #fff;
      }
    </style>
    <linearGradient id="linear-gradient" x1="136.42" y1="-.2" x2="-1.63" y2="109.03" gradientUnits="userSpaceOnUse">
      <stop offset="0" stop-color="#21ffff"/>
      <stop offset="1" stop-color="#0061f3"/>
    </linearGradient>
  </defs>
  <g id="Layer_1-2" data-name="Layer 1">
    <g>
      <g>
        <path class="cls-2" d="M203.9,87.06c4.27,3.52,9.84,5.28,16.7,5.28,6.01,0,10.87-1.29,14.59-3.88,3.71-2.58,5.57-6.18,5.57-10.78,0-3.29-1.01-5.9-3.03-7.82-2.02-1.93-4.77-3.41-8.24-4.44-3.48-1.03-8.36-2.11-14.66-3.24-6.39-1.13-11.86-2.61-16.42-4.44s-8.27-4.63-11.13-8.39c-2.87-3.76-4.3-8.69-4.3-14.8,0-5.64,1.48-10.66,4.44-15.08,2.96-4.42,7.09-7.85,12.4-10.29,5.31-2.44,11.39-3.66,18.25-3.66s13.34,1.32,18.89,3.95c5.54,2.63,9.91,6.25,13.11,10.85,3.19,4.6,4.93,9.87,5.22,15.79h-15.93c-.56-5.07-2.77-9.16-6.62-12.26-3.85-3.1-8.74-4.65-14.66-4.65s-10.31,1.25-13.74,3.74c-3.43,2.49-5.14,5.99-5.14,10.5,0,3.19,1.01,5.73,3.03,7.61,2.02,1.88,4.72,3.29,8.1,4.23,3.38.94,8.22,1.97,14.52,3.1,6.39,1.13,11.88,2.63,16.49,4.51s8.36,4.65,11.28,8.32c2.91,3.66,4.37,8.5,4.37,14.52s-1.55,11.04-4.65,15.64c-3.1,4.6-7.42,8.2-12.97,10.78-5.54,2.58-11.84,3.88-18.88,3.88-7.8,0-14.66-1.41-20.58-4.23-5.92-2.82-10.55-6.74-13.88-11.77-3.33-5.03-5.05-10.78-5.14-17.26l15.93.28c.47,5.83,2.84,10.5,7.12,14.02Z"/>
        <path class="cls-2" d="M334.14,105.17h-8.03c-4.7,0-8.08-.99-10.15-2.96-2.07-1.97-3.1-4.84-3.1-8.6-5.45,8.27-13.39,12.4-23.82,12.4-8.08,0-14.56-1.88-19.45-5.64s-7.33-8.92-7.33-15.5c0-7.42,2.63-13.13,7.89-17.12,5.26-3.99,12.92-5.99,22.97-5.99h18.18v-4.37c0-4.04-1.41-7.21-4.23-9.51-2.82-2.3-6.72-3.45-11.7-3.45-4.42,0-8.06.96-10.92,2.89-2.87,1.93-4.58,4.49-5.14,7.68h-14.94c.75-7.23,3.95-12.85,9.58-16.84,5.64-3.99,13.01-5.99,22.13-5.99,9.68,0,17.15,2.25,22.41,6.76,5.26,4.51,7.89,10.99,7.89,19.45v28.47c0,3.38,1.6,5.07,4.79,5.07h2.96v13.25ZM292.43,73.04c-4.7,0-8.32.92-10.85,2.75-2.54,1.83-3.81,4.53-3.81,8.1,0,3.1,1.2,5.59,3.6,7.47,2.4,1.88,5.66,2.82,9.79,2.82,6.3,0,11.2-1.69,14.73-5.07,3.52-3.38,5.33-7.89,5.43-13.53v-2.54h-18.89Z"/>
        <path class="cls-2" d="M354.73,6.52v98.65h-15.22V6.52h15.22Z"/>
        <path class="cls-2" d="M374.82,33.01l19.87,55.81,19.59-55.81h16.07l-26.64,72.16h-18.6l-26.64-72.16h16.35Z"/>
        <path class="cls-2" d="M500.41,105.17h-8.03c-4.7,0-8.08-.99-10.15-2.96-2.07-1.97-3.1-4.84-3.1-8.6-5.45,8.27-13.39,12.4-23.82,12.4-8.08,0-14.56-1.88-19.45-5.64-4.89-3.76-7.33-8.92-7.33-15.5,0-7.42,2.63-13.13,7.89-17.12,5.26-3.99,12.92-5.99,22.97-5.99h18.18v-4.37c0-4.04-1.41-7.21-4.23-9.51-2.82-2.3-6.72-3.45-11.7-3.45-4.42,0-8.06.96-10.92,2.89-2.87,1.93-4.58,4.49-5.14,7.68h-14.94c.75-7.23,3.95-12.85,9.58-16.84,5.64-3.99,13.01-5.99,22.13-5.99,9.68,0,17.15,2.25,22.41,6.76,5.26,4.51,7.89,10.99,7.89,19.45v28.47c0,3.38,1.6,5.07,4.79,5.07h2.96v13.25ZM458.69,73.04c-4.7,0-8.32.92-10.85,2.75-2.54,1.83-3.81,4.53-3.81,8.1,0,3.1,1.2,5.59,3.6,7.47,2.4,1.88,5.66,2.82,9.79,2.82,6.3,0,11.2-1.69,14.73-5.07,3.52-3.38,5.33-7.89,5.43-13.53v-2.54h-18.89Z"/>
        <path class="cls-2" d="M504.26,33.01V12.86h15.36v20.15h21.75v13.39h-21.75v37.63c0,2.82.56,4.82,1.69,5.99,1.13,1.18,3.05,1.76,5.78,1.76h14.28v13.39h-17.38c-6.86,0-11.86-1.6-15.01-4.79-3.15-3.19-4.72-8.13-4.72-14.8v-52.57Z"/>
        <path class="cls-2" d="M547.53,88.47c-3.05-5.59-4.58-12.05-4.58-19.38s1.53-13.65,4.58-19.24c3.05-5.59,7.37-9.94,12.96-13.04,5.59-3.1,12-4.65,19.24-4.65s13.65,1.55,19.24,4.65c5.59,3.1,9.91,7.45,12.96,13.04,3.05,5.59,4.58,12,4.58,19.24s-1.53,13.79-4.58,19.38c-3.05,5.59-7.37,9.91-12.96,12.97-5.59,3.05-12,4.58-19.24,4.58s-13.65-1.53-19.24-4.58c-5.59-3.05-9.91-7.38-12.96-12.97ZM601.01,69.09c0-7.05-1.95-12.8-5.85-17.26-3.9-4.46-9.04-6.69-15.43-6.69s-11.51,2.23-15.36,6.69c-3.85,4.46-5.78,10.22-5.78,17.26s1.93,12.8,5.78,17.26c3.85,4.46,8.97,6.69,15.36,6.69s11.53-2.23,15.43-6.69c3.9-4.46,5.85-10.22,5.85-17.26Z"/>
        <path class="cls-2" d="M664.44,47.25h-6.76c-6.3,0-10.85,2.04-13.67,6.13-2.82,4.09-4.23,9.28-4.23,15.57v36.22h-15.22V33.01h13.53l1.69,10.85c2.07-3.38,4.74-6.04,8.03-7.96,3.29-1.93,7.7-2.89,13.25-2.89h3.38v14.23Z"/>
        <path class="cls-2" d="M682.27,36.75c5.31-3.05,11.39-4.58,18.25-4.58s13.08,1.41,18.39,4.23c5.31,2.82,9.49,6.81,12.54,11.98,3.05,5.17,4.63,11.23,4.72,18.18,0,1.88-.14,3.81-.42,5.78h-54.4v.85c.37,6.3,2.35,11.28,5.92,14.94,3.57,3.66,8.32,5.5,14.23,5.5,4.7,0,8.64-1.1,11.84-3.31s5.31-5.33,6.34-9.37h15.22c-1.31,7.33-4.86,13.34-10.64,18.04-5.78,4.7-12.99,7.05-21.63,7.05-7.52,0-14.07-1.53-19.66-4.58-5.59-3.05-9.91-7.35-12.96-12.9-3.05-5.54-4.58-11.98-4.58-19.31s1.48-13.93,4.44-19.52c2.96-5.59,7.09-9.91,12.4-12.97ZM714.4,48.87c-3.52-2.96-7.96-4.44-13.32-4.44-4.98,0-9.28,1.53-12.9,4.58-3.62,3.05-5.71,7.12-6.27,12.19h38.76c-.66-5.26-2.75-9.37-6.27-12.33Z"/>
        <path class="cls-2" d="M837.21,10.4c5.17,2.58,9.16,6.25,11.98,10.99,2.82,4.74,4.23,10.26,4.23,16.56s-1.41,11.81-4.23,16.56c-2.82,4.74-6.81,8.41-11.98,10.99-5.17,2.58-11.13,3.88-17.9,3.88h-22.69v35.8h-16.21V6.52h38.9c6.77,0,12.73,1.29,17.9,3.88ZM817.91,55.28c5.83,0,10.45-1.57,13.88-4.72s5.14-7.35,5.14-12.61-1.69-9.58-5.07-12.68c-3.38-3.1-7.99-4.65-13.81-4.65h-21.42v34.67h21.28Z"/>
        <path class="cls-2" d="M875.85,13.28c0,2.63-.89,4.81-2.68,6.55s-3.99,2.61-6.62,2.61-4.84-.87-6.62-2.61c-1.78-1.74-2.68-3.92-2.68-6.55s.89-4.82,2.68-6.55c1.79-1.74,3.99-2.61,6.62-2.61s4.84.87,6.62,2.61c1.79,1.74,2.68,3.92,2.68,6.55ZM874.16,33.01v72.16h-15.22V33.01h15.22Z"/>
        <path class="cls-2" d="M925.28,47.25h-6.77c-6.29,0-10.85,2.04-13.67,6.13-2.82,4.09-4.23,9.28-4.23,15.57v36.22h-15.22V33.01h13.53l1.69,10.85c2.07-3.38,4.74-6.04,8.03-7.96,3.29-1.93,7.7-2.89,13.25-2.89h3.38v14.23Z"/>
        <path class="cls-2" d="M946.92,13.28c0,2.63-.89,4.81-2.68,6.55-1.79,1.74-3.99,2.61-6.62,2.61s-4.84-.87-6.62-2.61c-1.78-1.74-2.68-3.92-2.68-6.55s.89-4.82,2.68-6.55c1.79-1.74,3.99-2.61,6.62-2.61s4.84.87,6.62,2.61c1.79,1.74,2.68,3.92,2.68,6.55ZM945.23,33.01v72.16h-15.22V33.01h15.22Z"/>
        <path class="cls-2" d="M971.61,6.52v98.65h-15.22V6.52h15.22Z"/>
        <path class="cls-2" d="M997.88,6.52v98.65h-15.22V6.52h15.22Z"/>
        <path class="cls-2" d="M1010.52,88.47c-3.05-5.59-4.58-12.05-4.58-19.38s1.53-13.65,4.58-19.24c3.05-5.59,7.37-9.94,12.96-13.04,5.59-3.1,12-4.65,19.24-4.65s13.65,1.55,19.24,4.65c5.59,3.1,9.91,7.45,12.96,13.04,3.05,5.59,4.58,12,4.58,19.24s-1.53,13.79-4.58,19.38c-3.05,5.59-7.37,9.91-12.96,12.97-5.59,3.05-12,4.58-19.24,4.58s-13.65-1.53-19.24-4.58c-5.59-3.05-9.91-7.38-12.96-12.97ZM1064,69.09c0-7.05-1.95-12.8-5.85-17.26-3.9-4.46-9.04-6.69-15.43-6.69s-11.51,2.23-15.36,6.69c-3.85,4.46-5.78,10.22-5.78,17.26s1.93,12.8,5.78,17.26c3.85,4.46,8.97,6.69,15.36,6.69s11.53-2.23,15.43-6.69c3.9-4.46,5.85-10.22,5.85-17.26Z"/>
      </g>
      <path class="cls-1" d="M145.8,55.89l-27.93,38.09c-2.05,2.79-5.31,4.45-8.77,4.45h-45.49l-15.9,23.34h-25.72l25.54-37.46c3.04-4.45,8.08-7.12,13.47-7.12h42.83l12.73-17.34H10.9c-8.91,0-14.04-10.13-8.77-17.31L30.07,4.44c2.05-2.79,5.31-4.44,8.77-4.44h72.69l-15.6,21.27h-51.84l-12.71,17.32h105.64c8.91,0,14.04,10.12,8.77,17.31Z"/>
    </g>
  </g>
</svg>